<?xml version="1.0" standalone="no"?>
<!DOCTYPE svg PUBLIC "-//W3C//DTD SVG 20010904//EN"
 "http://www.w3.org/TR/2001/REC-SVG-20010904/DTD/svg10.dtd">
<svg version="1.0" xmlns="http://www.w3.org/2000/svg"
 width="210.000000pt" height="240.000000pt" viewBox="0 0 210.000000 240.000000"
 preserveAspectRatio="xMidYMid meet">

<g transform="translate(0.000000,240.000000) scale(0.100000,-0.100000)"
fill="#000000" stroke="none">
<path d="M760 2094 c-1 -134 -9 -322 -16 -343 -2 -8 -7 -11 -10 -8 -9 8 -121
-21 -165 -43 -60 -31 -88 -60 -99 -101 -14 -52 1 -83 56 -119 60 -37 160 -57
307 -60 16 0 17 -17 17 -219 l0 -220 251 -1 252 -1 -16 23 c-8 13 -21 22 -29
20 -7 -2 -10 0 -6 3 9 9 -25 59 -142 205 -50 63 -96 114 -103 112 -7 -2 -9 0
-5 4 8 8 -27 59 -74 108 -15 17 -28 36 -28 45 0 8 3 11 6 8 6 -6 104 42 132
65 17 14 40 66 46 103 7 38 -26 108 -63 135 -16 11 -31 17 -35 13 -3 -3 -6 -2
-6 4 0 5 -19 18 -42 28 -24 11 -44 20 -46 21 -2 1 34 66 79 143 45 78 80 144
77 146 -11 11 -162 37 -245 42 l-93 6 0 -119z"/>
<path d="M500 2194 c-59 -9 -146 -27 -157 -33 -11 -6 53 -130 138 -267 l19
-32 -72 -22 c-143 -43 -221 -96 -252 -172 -29 -69 -15 -134 45 -201 46 -54
150 -109 236 -128 32 -7 62 -15 66 -19 6 -6 -89 -228 -134 -312 -9 -17 2 -18
181 -18 l190 0 0 184 0 185 -57 6 c-32 3 -95 17 -141 31 -69 21 -91 33 -132
72 -59 57 -72 103 -45 161 26 58 86 97 210 137 l70 22 3 206 2 206 -72 -1
c-40 -1 -84 -3 -98 -5z"/>
<path d="M1115 2023 c-44 -65 -81 -120 -83 -123 -1 -3 17 -14 40 -25 60 -26
136 -100 149 -145 25 -83 -25 -168 -122 -209 -28 -12 -49 -25 -47 -30 2 -4 99
-120 217 -259 l215 -252 155 0 c134 0 153 2 141 14 -17 16 -417 346 -475 391
-23 18 -31 9 71 75 122 80 215 196 230 289 19 117 -85 241 -284 341 -127 64
-115 68 -207 -67z"/>
<path d="M304 902 c-165 -120 -173 -253 -23 -372 47 -37 55 -40 112 -40 l62 0
-49 29 c-95 56 -136 112 -136 186 0 69 59 147 150 199 l45 26 -61 0 c-51 0
-67 -5 -100 -28z"/>
<path d="M540 744 c0 -114 4 -193 11 -206 35 -64 243 -64 278 0 7 13 11 92 11
206 l0 186 -40 0 -40 0 -1 -122 c0 -178 -8 -251 -27 -265 -21 -17 -64 -16 -88
1 -18 14 -19 26 -16 200 l4 186 -46 0 -46 0 0 -186z"/>
<path d="M1051 874 c-146 -132 -138 -246 26 -362 24 -17 45 -22 90 -22 l58 0
-45 26 c-90 51 -140 117 -140 184 0 70 70 162 160 210 l35 19 -61 1 c-60 0
-61 -1 -123 -56z"/>
<path d="M1350 770 l0 -160 -62 0 -63 -1 24 -19 c13 -12 38 -20 58 -20 29 0
36 -4 45 -31 14 -41 41 -49 164 -49 98 0 104 1 104 20 0 19 -6 21 -79 19 -87
-2 -101 3 -101 32 0 17 8 19 90 19 73 0 90 3 90 15 0 12 -17 15 -90 15 l-90 0
0 130 0 130 85 0 c83 0 86 1 95 26 6 14 10 27 10 30 0 2 -63 4 -140 4 l-140 0
0 -160z"/>
<path d="M1740 710 l0 -220 39 0 c26 0 41 5 45 16 3 9 6 108 6 220 l0 204 -45
0 -45 0 0 -220z"/>
</g>
</svg>
